<mxfile host="app.diagrams.net" agent="Mozilla/5.0 (Windows NT 10.0; Win64; x64) AppleWebKit/537.36 (KHTML, like Gecko) Chrome/132.0.0.0 Safari/537.36 OPR/117.0.0.0" version="26.2.9">
  <diagram name="Seite-1" id="13_Bc9g0wLRCzNQgR-0g">
    <mxGraphModel dx="786" dy="1605" grid="1" gridSize="10" guides="1" tooltips="1" connect="1" arrows="1" fold="1" page="1" pageScale="1" pageWidth="827" pageHeight="1169" math="0" shadow="0">
      <root>
        <mxCell id="0" />
        <mxCell id="1" parent="0" />
        <mxCell id="uqWuTSuw_I2RRS-lehOX-29" style="edgeStyle=orthogonalEdgeStyle;rounded=0;orthogonalLoop=1;jettySize=auto;html=1;entryX=0;entryY=0.5;entryDx=0;entryDy=0;exitX=0.5;exitY=1;exitDx=0;exitDy=0;exitPerimeter=0;" edge="1" parent="1" source="uqWuTSuw_I2RRS-lehOX-1" target="uqWuTSuw_I2RRS-lehOX-22">
          <mxGeometry relative="1" as="geometry">
            <mxPoint x="79" y="360" as="targetPoint" />
          </mxGeometry>
        </mxCell>
        <mxCell id="uqWuTSuw_I2RRS-lehOX-1" value="" style="sketch=0;points=[[0,0,0],[0.25,0,0],[0.5,0,0],[0.75,0,0],[1,0,0],[0,1,0],[0.25,1,0],[0.5,1,0],[0.75,1,0],[1,1,0],[0,0.25,0],[0,0.5,0],[0,0.75,0],[1,0.25,0],[1,0.5,0],[1,0.75,0]];outlineConnect=0;fontColor=#232F3E;fillColor=#C925D1;strokeColor=#ffffff;dashed=0;verticalLabelPosition=bottom;verticalAlign=top;align=center;html=1;fontSize=12;fontStyle=0;aspect=fixed;shape=mxgraph.aws4.resourceIcon;resIcon=mxgraph.aws4.codedeploy;" vertex="1" parent="1">
          <mxGeometry x="40" y="160" width="78" height="78" as="geometry" />
        </mxCell>
        <mxCell id="uqWuTSuw_I2RRS-lehOX-2" value="deploy.sh" style="text;html=1;align=center;verticalAlign=middle;resizable=0;points=[];autosize=1;strokeColor=none;fillColor=none;" vertex="1" parent="1">
          <mxGeometry x="44" y="130" width="70" height="30" as="geometry" />
        </mxCell>
        <mxCell id="uqWuTSuw_I2RRS-lehOX-4" value="&lt;pre style=&quot;box-sizing: border-box; font-family: var(--fontStack-monospace, ui-monospace, SFMono-Regular, SF Mono, Menlo, Consolas, Liberation Mono, monospace); margin-top: 0px; margin-bottom: 0px; overflow-wrap: normal; padding: var(--base-size-16); overflow: auto; line-height: 1.45; color: rgb(240, 246, 252); background-color: rgb(21, 27, 35); border-radius: 6px; word-break: normal; min-height: 52px; text-align: start;&quot;&gt;&lt;br&gt;&lt;/pre&gt;" style="text;html=1;align=center;verticalAlign=middle;resizable=0;points=[];autosize=1;strokeColor=none;fillColor=none;" vertex="1" parent="1">
          <mxGeometry x="308" y="155" width="20" height="70" as="geometry" />
        </mxCell>
        <mxCell id="uqWuTSuw_I2RRS-lehOX-11" value="deploy.sh" style="swimlane;fontStyle=0;childLayout=stackLayout;horizontal=1;startSize=30;horizontalStack=0;resizeParent=1;resizeParentMax=0;resizeLast=0;collapsible=1;marginBottom=0;whiteSpace=wrap;html=1;" vertex="1" parent="1">
          <mxGeometry x="128" y="130" width="200" height="150" as="geometry">
            <mxRectangle x="130" y="160" width="90" height="30" as="alternateBounds" />
          </mxGeometry>
        </mxCell>
        <mxCell id="uqWuTSuw_I2RRS-lehOX-15" value="1. Terraform init" style="text;strokeColor=none;fillColor=none;align=left;verticalAlign=middle;spacingLeft=4;spacingRight=4;overflow=hidden;points=[[0,0.5],[1,0.5]];portConstraint=eastwest;rotatable=0;whiteSpace=wrap;html=1;" vertex="1" parent="uqWuTSuw_I2RRS-lehOX-11">
          <mxGeometry y="30" width="200" height="30" as="geometry" />
        </mxCell>
        <mxCell id="uqWuTSuw_I2RRS-lehOX-12" value="2. Test SSH" style="text;strokeColor=none;fillColor=none;align=left;verticalAlign=middle;spacingLeft=4;spacingRight=4;overflow=hidden;points=[[0,0.5],[1,0.5]];portConstraint=eastwest;rotatable=0;whiteSpace=wrap;html=1;" vertex="1" parent="uqWuTSuw_I2RRS-lehOX-11">
          <mxGeometry y="60" width="200" height="30" as="geometry" />
        </mxCell>
        <mxCell id="uqWuTSuw_I2RRS-lehOX-13" value="3. Generate Inventory und Output" style="text;strokeColor=none;fillColor=none;align=left;verticalAlign=middle;spacingLeft=4;spacingRight=4;overflow=hidden;points=[[0,0.5],[1,0.5]];portConstraint=eastwest;rotatable=0;whiteSpace=wrap;html=1;" vertex="1" parent="uqWuTSuw_I2RRS-lehOX-11">
          <mxGeometry y="90" width="200" height="30" as="geometry" />
        </mxCell>
        <mxCell id="uqWuTSuw_I2RRS-lehOX-14" value="4. ..." style="text;strokeColor=none;fillColor=none;align=left;verticalAlign=middle;spacingLeft=4;spacingRight=4;overflow=hidden;points=[[0,0.5],[1,0.5]];portConstraint=eastwest;rotatable=0;whiteSpace=wrap;html=1;" vertex="1" parent="uqWuTSuw_I2RRS-lehOX-11">
          <mxGeometry y="120" width="200" height="30" as="geometry" />
        </mxCell>
        <mxCell id="uqWuTSuw_I2RRS-lehOX-17" value="Terraform" style="text;html=1;align=center;verticalAlign=middle;resizable=0;points=[];autosize=1;strokeColor=none;fillColor=none;" vertex="1" parent="1">
          <mxGeometry x="158" y="320" width="70" height="30" as="geometry" />
        </mxCell>
        <mxCell id="uqWuTSuw_I2RRS-lehOX-49" value="" style="edgeStyle=none;rounded=0;orthogonalLoop=1;jettySize=auto;html=1;" edge="1" parent="1" source="uqWuTSuw_I2RRS-lehOX-18" target="uqWuTSuw_I2RRS-lehOX-48">
          <mxGeometry relative="1" as="geometry" />
        </mxCell>
        <mxCell id="uqWuTSuw_I2RRS-lehOX-18" value="Ansible" style="shape=rect;fillColor=#EE5396;aspect=fixed;resizable=0;labelPosition=center;verticalLabelPosition=bottom;align=center;verticalAlign=top;strokeColor=none;fontSize=14;" vertex="1" parent="1">
          <mxGeometry x="170" y="1020" width="48" height="48" as="geometry" />
        </mxCell>
        <mxCell id="uqWuTSuw_I2RRS-lehOX-19" value="" style="fillColor=#ffffff;strokeColor=none;dashed=0;outlineConnect=0;html=1;labelPosition=center;verticalLabelPosition=bottom;verticalAlign=top;part=1;movable=0;resizable=0;rotatable=0;shape=mxgraph.ibm_cloud.logo--ansible-community" vertex="1" parent="uqWuTSuw_I2RRS-lehOX-18">
          <mxGeometry width="24" height="24" relative="1" as="geometry">
            <mxPoint x="12" y="12" as="offset" />
          </mxGeometry>
        </mxCell>
        <mxCell id="uqWuTSuw_I2RRS-lehOX-40" style="edgeStyle=orthogonalEdgeStyle;rounded=0;orthogonalLoop=1;jettySize=auto;html=1;" edge="1" parent="1" source="uqWuTSuw_I2RRS-lehOX-22" target="uqWuTSuw_I2RRS-lehOX-36">
          <mxGeometry relative="1" as="geometry" />
        </mxCell>
        <mxCell id="uqWuTSuw_I2RRS-lehOX-22" value="" style="shape=image;verticalLabelPosition=bottom;labelBackgroundColor=default;verticalAlign=top;aspect=fixed;imageAspect=0;editableCssRules=.*;image=data:image/svg+xml,PHN2ZyB4bWxucz0iaHR0cDovL3d3dy53My5vcmcvMjAwMC9zdmciIHdpZHRoPSIzMy42OTgwMDE4NjE1NzIyNjYiIHZpZXdCb3g9IjUuMDQ2OTk5OTMxMzM1NDQ5IDAuNjMyOTk5ODk3MDAzMTczOCAzMy42OTgwMDE4NjE1NzIyNjYgMzguMjkyOTk5MjY3NTc4MTI1IiBoZWlnaHQ9IjM4LjI5Mjk5OTI2NzU3ODEyNSIgZmlsbD0ibm9uZSI+PGcgZmlsbC1ydWxlPSJldmVub2RkIiBjbGlwLXJ1bGU9ImV2ZW5vZGQiPjxwYXRoIGZpbGw9IiM2MjNjZTQiIGQ9Im0xNi42NjQgNy4zODQgMTAuNDY4IDYuMDQydjEyLjA4NWwtMTAuNDY4LTYuMDQxeiIvPjxwYXRoIGZpbGw9IiMzYzJhYTgiIGQ9Im0yOC4yNzcgMTMuNDI2djEyLjA4NWwxMC40NjgtNi4wNDJ2LTEyLjA5eiIvPjxwYXRoIGZpbGw9IiM2MjNjZTQiIGQ9Im01LjA0Ny42MzR2MTIuMDg1bDEwLjQ2OCA2LjA0OHYtMTIuMDlsLTEwLjQ2OC02LjA0NHptMTEuNjE3IDMyLjI0NCAxMC40NjMgNi4wNDh2LTEyLjA5bC0xMC40NjMtNi4wNDN6Ii8+PC9nPjwvc3ZnPg==;" vertex="1" parent="1">
          <mxGeometry x="158" y="360.00000000000006" width="74" height="82.71" as="geometry" />
        </mxCell>
        <mxCell id="uqWuTSuw_I2RRS-lehOX-45" style="edgeStyle=orthogonalEdgeStyle;rounded=0;orthogonalLoop=1;jettySize=auto;html=1;entryX=0.5;entryY=0;entryDx=0;entryDy=0;" edge="1" parent="1" source="uqWuTSuw_I2RRS-lehOX-36" target="uqWuTSuw_I2RRS-lehOX-18">
          <mxGeometry relative="1" as="geometry" />
        </mxCell>
        <mxCell id="uqWuTSuw_I2RRS-lehOX-36" value="Terminal: Terraform Output" style="swimlane;" vertex="1" parent="1">
          <mxGeometry x="110" y="760" width="170" height="130" as="geometry" />
        </mxCell>
        <mxCell id="uqWuTSuw_I2RRS-lehOX-38" value="IP-Adresse" style="text;html=1;align=center;verticalAlign=middle;resizable=0;points=[];autosize=1;strokeColor=none;fillColor=none;" vertex="1" parent="uqWuTSuw_I2RRS-lehOX-36">
          <mxGeometry x="8" y="30" width="80" height="30" as="geometry" />
        </mxCell>
        <mxCell id="uqWuTSuw_I2RRS-lehOX-39" value="ansible_inventory" style="text;html=1;align=center;verticalAlign=middle;resizable=0;points=[];autosize=1;strokeColor=none;fillColor=none;" vertex="1" parent="uqWuTSuw_I2RRS-lehOX-36">
          <mxGeometry y="65" width="120" height="30" as="geometry" />
        </mxCell>
        <mxCell id="uqWuTSuw_I2RRS-lehOX-41" value="generate_inventory.sh" style="swimlane;fontStyle=0;childLayout=stackLayout;horizontal=1;startSize=26;fillColor=none;horizontalStack=0;resizeParent=1;resizeParentMax=0;resizeLast=0;collapsible=1;marginBottom=0;html=1;" vertex="1" parent="1">
          <mxGeometry x="127" y="1100" width="140" height="78" as="geometry" />
        </mxCell>
        <mxCell id="uqWuTSuw_I2RRS-lehOX-42" value="Extrahiere Outputs" style="text;strokeColor=none;fillColor=none;align=left;verticalAlign=top;spacingLeft=4;spacingRight=4;overflow=hidden;rotatable=0;points=[[0,0.5],[1,0.5]];portConstraint=eastwest;whiteSpace=wrap;html=1;" vertex="1" parent="uqWuTSuw_I2RRS-lehOX-41">
          <mxGeometry y="26" width="140" height="26" as="geometry" />
        </mxCell>
        <mxCell id="uqWuTSuw_I2RRS-lehOX-43" value="Erstelle JSON-Inventory" style="text;strokeColor=none;fillColor=none;align=left;verticalAlign=top;spacingLeft=4;spacingRight=4;overflow=hidden;rotatable=0;points=[[0,0.5],[1,0.5]];portConstraint=eastwest;whiteSpace=wrap;html=1;" vertex="1" parent="uqWuTSuw_I2RRS-lehOX-41">
          <mxGeometry y="52" width="140" height="26" as="geometry" />
        </mxCell>
        <mxCell id="uqWuTSuw_I2RRS-lehOX-47" value="Ansible" style="shape=rect;fillColor=#EE5396;aspect=fixed;resizable=0;labelPosition=center;verticalLabelPosition=bottom;align=center;verticalAlign=top;strokeColor=none;fontSize=14;" vertex="1" parent="1">
          <mxGeometry x="340" y="1020" width="48" height="48" as="geometry" />
        </mxCell>
        <mxCell id="uqWuTSuw_I2RRS-lehOX-48" value="" style="fillColor=#ffffff;strokeColor=none;dashed=0;outlineConnect=0;html=1;labelPosition=center;verticalLabelPosition=bottom;verticalAlign=top;part=1;movable=0;resizable=0;rotatable=0;shape=mxgraph.ibm_cloud.logo--ansible-community" vertex="1" parent="uqWuTSuw_I2RRS-lehOX-47">
          <mxGeometry width="24" height="24" relative="1" as="geometry">
            <mxPoint x="12" y="12" as="offset" />
          </mxGeometry>
        </mxCell>
        <mxCell id="uqWuTSuw_I2RRS-lehOX-103" style="edgeStyle=none;rounded=0;orthogonalLoop=1;jettySize=auto;html=1;entryX=0.5;entryY=0;entryDx=0;entryDy=0;" edge="1" parent="1" source="uqWuTSuw_I2RRS-lehOX-59" target="uqWuTSuw_I2RRS-lehOX-100">
          <mxGeometry relative="1" as="geometry" />
        </mxCell>
        <mxCell id="uqWuTSuw_I2RRS-lehOX-59" value="Ansible Server Config" style="swimlane;startSize=30;horizontal=1;childLayout=flowLayout;flowOrientation=north;resizable=0;interRankCellSpacing=50;containerType=tree;fontSize=12;" vertex="1" parent="1">
          <mxGeometry x="400" y="960" width="400" height="290" as="geometry" />
        </mxCell>
        <mxCell id="uqWuTSuw_I2RRS-lehOX-60" value="Liest Inventory" style="whiteSpace=wrap;html=1;" vertex="1" parent="uqWuTSuw_I2RRS-lehOX-59">
          <mxGeometry x="150" y="50" width="100" height="40" as="geometry" />
        </mxCell>
        <mxCell id="uqWuTSuw_I2RRS-lehOX-75" style="edgeStyle=none;rounded=0;orthogonalLoop=1;jettySize=auto;html=1;entryX=0.5;entryY=1;entryDx=0;entryDy=0;noEdgeStyle=1;orthogonal=1;" edge="1" parent="uqWuTSuw_I2RRS-lehOX-59" source="uqWuTSuw_I2RRS-lehOX-63" target="uqWuTSuw_I2RRS-lehOX-73">
          <mxGeometry relative="1" as="geometry">
            <Array as="points">
              <mxPoint x="170" y="192" />
              <mxPoint x="70" y="218" />
            </Array>
          </mxGeometry>
        </mxCell>
        <mxCell id="uqWuTSuw_I2RRS-lehOX-82" style="edgeStyle=none;rounded=0;orthogonalLoop=1;jettySize=auto;html=1;noEdgeStyle=1;orthogonal=1;" edge="1" parent="uqWuTSuw_I2RRS-lehOX-59" source="uqWuTSuw_I2RRS-lehOX-63" target="uqWuTSuw_I2RRS-lehOX-74">
          <mxGeometry relative="1" as="geometry">
            <Array as="points">
              <mxPoint x="200" y="194" />
              <mxPoint x="200" y="218" />
            </Array>
          </mxGeometry>
        </mxCell>
        <mxCell id="uqWuTSuw_I2RRS-lehOX-83" style="edgeStyle=none;rounded=0;orthogonalLoop=1;jettySize=auto;html=1;noEdgeStyle=1;orthogonal=1;" edge="1" parent="uqWuTSuw_I2RRS-lehOX-59" source="uqWuTSuw_I2RRS-lehOX-63" target="uqWuTSuw_I2RRS-lehOX-81">
          <mxGeometry relative="1" as="geometry">
            <Array as="points">
              <mxPoint x="230" y="192" />
              <mxPoint x="330" y="218" />
            </Array>
          </mxGeometry>
        </mxCell>
        <mxCell id="uqWuTSuw_I2RRS-lehOX-63" value="Führe Playbook aus" style="whiteSpace=wrap;html=1;" vertex="1" parent="uqWuTSuw_I2RRS-lehOX-59">
          <mxGeometry x="150" y="140" width="100" height="40" as="geometry" />
        </mxCell>
        <mxCell id="uqWuTSuw_I2RRS-lehOX-64" value="" style="html=1;rounded=1;curved=0;sourcePerimeterSpacing=0;targetPerimeterSpacing=0;startSize=6;endSize=6;noEdgeStyle=1;orthogonal=1;" edge="1" parent="uqWuTSuw_I2RRS-lehOX-59" source="uqWuTSuw_I2RRS-lehOX-60" target="uqWuTSuw_I2RRS-lehOX-63">
          <mxGeometry relative="1" as="geometry">
            <Array as="points">
              <mxPoint x="200" y="102" />
              <mxPoint x="200" y="128" />
            </Array>
          </mxGeometry>
        </mxCell>
        <mxCell id="uqWuTSuw_I2RRS-lehOX-73" value="Nginx installieren" style="whiteSpace=wrap;html=1;" vertex="1" parent="uqWuTSuw_I2RRS-lehOX-59">
          <mxGeometry x="20" y="230" width="100" height="40" as="geometry" />
        </mxCell>
        <mxCell id="uqWuTSuw_I2RRS-lehOX-74" value="Verziechnisse anlegen" style="whiteSpace=wrap;html=1;" vertex="1" parent="uqWuTSuw_I2RRS-lehOX-59">
          <mxGeometry x="150" y="230" width="100" height="40" as="geometry" />
        </mxCell>
        <mxCell id="uqWuTSuw_I2RRS-lehOX-81" value="Dienste starten" style="whiteSpace=wrap;html=1;" vertex="1" parent="uqWuTSuw_I2RRS-lehOX-59">
          <mxGeometry x="280" y="230" width="100" height="40" as="geometry" />
        </mxCell>
        <mxCell id="uqWuTSuw_I2RRS-lehOX-84" value="Terraform Infrastuktur" style="swimlane;startSize=30;horizontal=1;childLayout=flowLayout;flowOrientation=north;resizable=0;interRankCellSpacing=50;containerType=tree;fontSize=12;" vertex="1" parent="1">
          <mxGeometry x="290" y="320" width="140" height="380" as="geometry" />
        </mxCell>
        <mxCell id="uqWuTSuw_I2RRS-lehOX-85" value="Liest .tf Dateien" style="whiteSpace=wrap;html=1;" vertex="1" parent="uqWuTSuw_I2RRS-lehOX-84">
          <mxGeometry x="20" y="50" width="100" height="40" as="geometry" />
        </mxCell>
        <mxCell id="uqWuTSuw_I2RRS-lehOX-86" style="edgeStyle=none;rounded=0;orthogonalLoop=1;jettySize=auto;html=1;entryX=0.5;entryY=1;entryDx=0;entryDy=0;noEdgeStyle=1;orthogonal=1;" edge="1" parent="uqWuTSuw_I2RRS-lehOX-84" source="uqWuTSuw_I2RRS-lehOX-89" target="uqWuTSuw_I2RRS-lehOX-91">
          <mxGeometry relative="1" as="geometry">
            <Array as="points">
              <mxPoint x="70" y="192" />
              <mxPoint x="70" y="218" />
            </Array>
          </mxGeometry>
        </mxCell>
        <mxCell id="uqWuTSuw_I2RRS-lehOX-89" value="Plant Ressorucen" style="whiteSpace=wrap;html=1;" vertex="1" parent="uqWuTSuw_I2RRS-lehOX-84">
          <mxGeometry x="20" y="140" width="100" height="40" as="geometry" />
        </mxCell>
        <mxCell id="uqWuTSuw_I2RRS-lehOX-90" value="" style="html=1;rounded=1;curved=0;sourcePerimeterSpacing=0;targetPerimeterSpacing=0;startSize=6;endSize=6;noEdgeStyle=1;orthogonal=1;" edge="1" parent="uqWuTSuw_I2RRS-lehOX-84" source="uqWuTSuw_I2RRS-lehOX-85" target="uqWuTSuw_I2RRS-lehOX-89">
          <mxGeometry relative="1" as="geometry">
            <Array as="points">
              <mxPoint x="70" y="102" />
              <mxPoint x="70" y="128" />
            </Array>
          </mxGeometry>
        </mxCell>
        <mxCell id="uqWuTSuw_I2RRS-lehOX-96" style="edgeStyle=none;rounded=0;orthogonalLoop=1;jettySize=auto;html=1;noEdgeStyle=1;orthogonal=1;" edge="1" parent="uqWuTSuw_I2RRS-lehOX-84" source="uqWuTSuw_I2RRS-lehOX-91" target="uqWuTSuw_I2RRS-lehOX-94">
          <mxGeometry relative="1" as="geometry">
            <Array as="points">
              <mxPoint x="70" y="282" />
              <mxPoint x="70" y="308" />
            </Array>
          </mxGeometry>
        </mxCell>
        <mxCell id="uqWuTSuw_I2RRS-lehOX-91" value="Erstellt VM und SG" style="whiteSpace=wrap;html=1;" vertex="1" parent="uqWuTSuw_I2RRS-lehOX-84">
          <mxGeometry x="20" y="230" width="100" height="40" as="geometry" />
        </mxCell>
        <mxCell id="uqWuTSuw_I2RRS-lehOX-94" value="Wartet auf SSH" style="whiteSpace=wrap;html=1;" vertex="1" parent="uqWuTSuw_I2RRS-lehOX-84">
          <mxGeometry x="20" y="320" width="100" height="40" as="geometry" />
        </mxCell>
        <mxCell id="uqWuTSuw_I2RRS-lehOX-100" value="Terminal: Terraform Output" style="swimlane;" vertex="1" parent="1">
          <mxGeometry x="515" y="1300" width="170" height="130" as="geometry" />
        </mxCell>
        <mxCell id="uqWuTSuw_I2RRS-lehOX-101" value="Webserver ist bereit" style="text;html=1;align=center;verticalAlign=middle;resizable=0;points=[];autosize=1;strokeColor=none;fillColor=none;" vertex="1" parent="uqWuTSuw_I2RRS-lehOX-100">
          <mxGeometry x="20" y="30" width="130" height="30" as="geometry" />
        </mxCell>
        <mxCell id="uqWuTSuw_I2RRS-lehOX-102" value="URL wird Angezeigt" style="text;html=1;align=center;verticalAlign=middle;resizable=0;points=[];autosize=1;strokeColor=none;fillColor=none;" vertex="1" parent="uqWuTSuw_I2RRS-lehOX-100">
          <mxGeometry x="20" y="60" width="130" height="30" as="geometry" />
        </mxCell>
      </root>
    </mxGraphModel>
  </diagram>
</mxfile>
